<svg width="1471" height="418" viewBox="0 0 1471 418" fill="none" xmlns="http://www.w3.org/2000/svg">
<rect y="21" width="1470.07" height="396.289" rx="80" fill="#FFB100"/>
<rect x="57.2773" y="51.1637" width="1364.67" height="339.138" rx="80" fill="#FFFAF3"/>
<path d="M444.1 297.5C436.5 297.1 430.4 295.6 425.8 293C421.2 290.4 417.7 287.5 415.3 284.3C413.1 280.9 411.6 278 410.8 275.6C410.2 273 409.9 271.7 409.9 271.7C409.5 266.1 409.1 259.1 408.7 250.7C408.3 242.1 408 232.7 407.8 222.5C407.6 212.1 407.5 201.4 407.5 190.4C407.7 179.2 408 168.1 408.4 157.1C409 146.1 409.7 135.8 410.5 126.2C410.5 126.2 410.6 125.3 410.8 123.5C411.2 121.5 412.2 119.2 413.8 116.6C415.4 114 418.1 111.6 421.9 109.4C425.9 107 431.5 105.3 438.7 104.3C467.3 102.3 492.1 102.4 513.1 104.6C534.1 106.8 550.3 112.6 561.7 122C573.1 131.2 580.7 141.7 584.5 153.5C588.3 165.3 588.4 177 584.8 188.6C581.4 200 574.4 210.1 563.8 218.9C559.4 222.7 553.9 226.1 547.3 229.1C540.9 232.1 533.7 234.6 525.7 236.6C517.9 238.4 509.4 239.6 500.2 240.2C491.2 240.6 481.8 240.2 472 239L473.5 277.1C473.5 277.1 473.2 278.2 472.6 280.4C472 282.6 470.7 285.1 468.7 287.9C466.7 290.5 463.7 292.8 459.7 294.8C455.9 296.8 450.7 297.7 444.1 297.5ZM472.3 189.5C480.7 190.1 487.8 190.1 493.6 189.5C499.4 188.9 504.1 187.7 507.7 185.9C511.3 184.1 513.9 181.9 515.5 179.3C517.3 176.5 518.3 173.4 518.5 170C518.5 165.2 517.4 161.3 515.2 158.3C513 155.1 509.9 152.8 505.9 151.4C501.9 149.8 497.2 148.8 491.8 148.4C486.4 148 480.3 148.1 473.5 148.7C472.9 155.5 472.5 162.4 472.3 169.4C472.1 176.2 472.1 182.9 472.3 189.5ZM633.817 299.3C626.417 299.3 620.317 298.1 615.517 295.7C610.917 293.1 607.217 290.1 604.417 286.7C601.817 283.3 599.917 280.4 598.717 278C597.717 275.4 597.217 274.1 597.217 274.1C596.217 265.5 595.417 256.3 594.817 246.5C594.217 236.5 593.817 226.3 593.617 215.9C593.617 205.3 593.717 194.7 593.917 184.1C594.317 173.3 594.817 162.7 595.417 152.3C596.217 141.7 597.117 131.5 598.117 121.7C598.117 121.7 598.417 120.7 599.017 118.7C599.817 116.7 601.317 114.5 603.517 112.1C605.717 109.5 608.817 107.4 612.817 105.8C616.817 104 622.317 103.4 629.317 104C636.717 104.6 642.517 106.3 646.717 109.1C651.117 111.7 654.317 114.6 656.317 117.8C658.517 121 659.917 123.8 660.517 126.2C661.317 128.6 661.717 129.8 661.717 129.8C661.517 137.4 661.217 145.9 660.817 155.3C660.417 164.5 660.117 174.2 659.917 184.4C659.717 194.6 659.617 205.1 659.617 215.9C659.617 226.5 659.717 237.1 659.917 247.7C660.317 258.3 660.817 268.5 661.417 278.3C661.417 278.3 661.117 279.4 660.517 281.6C660.117 283.6 659.117 286 657.517 288.8C655.917 291.6 653.217 294.1 649.417 296.3C645.817 298.3 640.617 299.3 633.817 299.3ZM756.691 299.3C743.891 299.5 731.891 297.8 720.691 294.2C709.691 290.4 699.991 285.1 691.591 278.3C683.191 271.5 676.591 263.7 671.791 254.9C667.191 245.9 664.991 236.4 665.191 226.4C665.391 214.6 667.791 204 672.391 194.6C677.191 185.2 683.691 177.2 691.891 170.6C700.291 163.8 709.991 158.6 720.991 155C731.991 151.4 743.891 149.5 756.691 149.3C776.491 149.1 792.991 151.7 806.191 157.1C819.391 162.3 829.191 170.5 835.591 181.7C842.191 192.7 845.491 206.8 845.491 224C845.491 234 843.891 243.5 840.691 252.5C837.491 261.3 832.491 269.2 825.691 276.2C818.891 283 809.791 288.5 798.391 292.7C786.991 296.7 773.091 298.9 756.691 299.3ZM759.091 248.9C763.091 248.9 766.791 248.2 770.191 246.8C773.791 245.2 776.891 243.1 779.491 240.5C782.091 237.7 784.191 234.6 785.791 231.2C787.391 227.8 788.191 224.2 788.191 220.4C788.191 214 787.091 208.8 784.891 204.8C782.691 200.8 779.591 197.8 775.591 195.8C771.791 193.8 767.291 192.8 762.091 192.8C758.291 192.8 754.691 193.7 751.291 195.5C748.091 197.3 745.191 199.7 742.591 202.7C740.191 205.5 738.291 208.7 736.891 212.3C735.491 215.9 734.791 219.6 734.791 223.4C734.791 228.2 735.791 232.6 737.791 236.6C739.791 240.4 742.591 243.4 746.191 245.6C749.991 247.8 754.291 248.9 759.091 248.9ZM839.191 299C832.391 299 826.791 298.1 822.391 296.3C817.991 294.5 814.691 292.7 812.491 290.9C810.491 289.1 809.491 288.2 809.491 288.2C807.891 273.6 806.391 259.5 804.991 245.9C803.591 232.1 802.891 218 802.891 203.6C802.891 189.2 803.691 174 805.291 158C805.291 158 806.291 157.2 808.291 155.6C810.491 153.8 813.791 152.1 818.191 150.5C822.791 148.9 828.691 148.4 835.891 149C843.891 149.6 849.891 151.5 853.891 154.7C858.091 157.9 860.991 161.5 862.591 165.5C864.191 169.3 865.091 172.7 865.291 175.7C865.491 178.5 865.591 179.9 865.591 179.9C864.591 190.1 863.791 198.7 863.191 205.7C862.791 212.5 862.591 219.1 862.591 225.5C862.791 231.9 863.091 239.1 863.491 247.1C863.891 255.1 864.491 265.3 865.291 277.7C865.291 277.7 865.091 278.8 864.691 281C864.291 283 863.291 285.4 861.691 288.2C860.291 291 857.791 293.5 854.191 295.7C850.591 297.9 845.591 299 839.191 299ZM985.802 363.2C969.402 364 954.002 363 939.602 360.2C925.402 357.6 911.902 353.7 899.102 348.5C899.102 348.5 897.802 347.9 895.202 346.7C892.802 345.5 890.002 343.6 886.802 341C883.802 338.6 881.502 335.6 879.902 332C878.502 328.4 878.802 324.2 880.802 319.4C882.602 314.6 885.302 311.1 888.902 308.9C892.502 306.9 896.102 305.7 899.702 305.3C903.502 305.1 906.702 305.1 909.302 305.3C912.102 305.7 913.502 305.9 913.502 305.9C921.502 307.7 928.302 309.2 933.902 310.4C939.502 311.8 944.702 312.8 949.502 313.4C954.502 314 959.602 314.5 964.802 314.9C975.802 314.5 984.202 312.9 990.002 310.1C995.802 307.5 999.802 303.6 1002 298.4C1004.4 293 1005.5 286.2 1005.3 278C1006.3 264.4 1006.7 252.8 1006.5 243.2C1006.3 233.4 1005.8 224.5 1005 216.5C1004.2 208.5 1003.3 200.3 1002.3 191.9C1001.3 183.3 1000.2 173.5 999.002 162.5C999.002 162.5 999.702 161.4 1001.1 159.2C1002.5 157 1005.1 154.9 1008.9 152.9C1012.9 150.7 1018.8 149.6 1026.6 149.6C1034.4 149.4 1040.8 150.8 1045.8 153.8C1051 156.8 1054.9 159.8 1057.5 162.8C1060.3 165.6 1061.7 167 1061.7 167C1065.7 181.8 1068.6 195.9 1070.4 209.3C1072.2 222.5 1073.1 236.3 1073.1 250.7C1073.3 264.9 1073 281 1072.2 299C1069.8 319.2 1061.7 334.6 1047.9 345.2C1034.3 356 1013.6 362 985.802 363.2ZM938.102 295.4C928.302 291.6 919.102 286.8 910.502 281C901.902 275 894.602 268.2 888.602 260.6C882.602 252.8 878.602 244.4 876.602 235.4C874.602 227.8 873.302 221 872.702 215C872.102 208.8 872.102 202.5 872.702 196.1C873.302 189.7 874.402 182.2 876.002 173.6C876.002 173.6 876.402 172.5 877.202 170.3C878.202 167.9 879.802 165.2 882.002 162.2C884.202 159.2 887.302 156.6 891.302 154.4C895.502 152.2 901.002 151.3 907.802 151.7C916.002 152.3 922.402 153.9 927.002 156.5C931.802 158.9 935.302 161.9 937.502 165.5C939.702 168.9 941.102 172.3 941.702 175.7C942.302 179.1 942.502 181.9 942.302 184.1C942.102 186.3 942.002 187.4 942.002 187.4C940.402 199 939.902 208.8 940.502 216.8C941.302 224.8 942.702 231.1 944.702 235.7C946.702 240.1 948.702 243.1 950.702 244.7C953.502 246.7 957.902 247.7 963.902 247.7C969.902 247.5 977.902 245.7 987.902 242.3C989.102 241.9 991.002 240.3 993.602 237.5C996.202 234.7 998.702 230.9 1001.1 226.1C1003.7 221.3 1004.9 215.8 1004.7 209.6L1053 201.5C1056.2 217.7 1056 231.9 1052.4 244.1C1049 256.3 1042.9 266.8 1034.1 275.6C1027.3 282 1018.9 287.4 1008.9 291.8C999.102 296.2 988.102 298.8 975.902 299.6C963.902 300.6 951.302 299.2 938.102 295.4Z" fill="#FFB100"/>
</svg>
