<svg width="121" height="137" viewBox="0 0 121 137" fill="none" xmlns="http://www.w3.org/2000/svg">
<rect x="3.18799" y="4.49048" width="113.743" height="127.321" rx="25.9975" fill="#FFF4D9" stroke="#FFB100" stroke-width="6"/>
<path d="M21.9609 117.408C21.4257 117.441 20.9879 117.384 20.6473 117.238C20.3068 117.076 20.0473 116.873 19.8689 116.63C19.6905 116.371 19.5608 116.103 19.4797 115.827C19.4148 115.552 19.3743 115.308 19.3581 115.097C19.3094 114.157 19.2689 113.314 19.2365 112.568C19.204 111.805 19.1716 111.084 19.1392 110.403C19.1229 109.705 19.1148 109.008 19.1148 108.311C19.1311 107.597 19.1554 106.835 19.1878 106.024C19.2365 105.197 19.3013 104.265 19.3824 103.227C19.3824 103.227 19.3905 103.146 19.4067 102.983C19.4392 102.805 19.5203 102.611 19.65 102.4C19.7797 102.173 19.9824 101.986 20.2581 101.84C20.5338 101.678 20.9311 101.613 21.4501 101.646C21.9204 101.678 22.2933 101.8 22.569 102.01C22.8447 102.205 23.0393 102.424 23.1528 102.667C23.2826 102.894 23.3637 103.105 23.3961 103.3C23.4285 103.478 23.4447 103.567 23.4447 103.567C23.4123 105.562 23.3718 107.403 23.3231 109.089C23.2907 110.759 23.3069 112.324 23.3718 113.784C24.0042 113.703 24.5718 113.63 25.0745 113.565C25.5773 113.484 26.0719 113.395 26.5584 113.297C27.0611 113.184 27.6125 113.07 28.2125 112.957C28.2125 112.957 28.2855 112.957 28.4314 112.957C28.5774 112.941 28.7639 112.949 28.9909 112.981C29.2179 112.997 29.4531 113.046 29.6963 113.127C29.9396 113.192 30.1585 113.306 30.3531 113.468C30.5477 113.63 30.6856 113.857 30.7666 114.149C30.8802 114.57 30.9045 114.927 30.8396 115.219C30.7748 115.511 30.6693 115.746 30.5234 115.925C30.3937 116.103 30.272 116.233 30.1585 116.314C30.045 116.395 29.9882 116.435 29.9882 116.435C29.1936 116.581 28.4639 116.719 27.799 116.849C27.1341 116.979 26.4854 117.092 25.8529 117.189C25.2367 117.271 24.6123 117.335 23.9799 117.384C23.3637 117.416 22.6907 117.425 21.9609 117.408ZM37.7429 117.457C36.8672 117.473 36.0482 117.335 35.286 117.044C34.54 116.735 33.8751 116.314 33.2913 115.779C32.7238 115.227 32.2778 114.595 31.9534 113.881C31.6453 113.151 31.4913 112.381 31.4913 111.57C31.5075 110.63 31.6778 109.778 32.0021 109.016C32.3427 108.254 32.7967 107.597 33.3643 107.046C33.9319 106.494 34.5968 106.073 35.359 105.781C36.1212 105.489 36.9401 105.335 37.8158 105.319C39.1781 105.303 40.3051 105.513 41.1971 105.951C42.1052 106.373 42.7863 107.038 43.2404 107.946C43.6944 108.838 43.9215 109.981 43.9215 111.376C43.9215 112.187 43.808 112.957 43.5809 113.687C43.3539 114.4 42.989 115.041 42.4863 115.608C41.9998 116.16 41.3673 116.606 40.5889 116.946C39.8105 117.271 38.8618 117.441 37.7429 117.457ZM37.9131 113.76C38.2213 113.76 38.5213 113.695 38.8132 113.565C39.1051 113.419 39.3564 113.224 39.5673 112.981C39.7943 112.722 39.9727 112.43 40.1024 112.105C40.2322 111.781 40.297 111.449 40.297 111.108C40.297 110.508 40.1997 110.022 40.0051 109.649C39.8267 109.259 39.5754 108.976 39.251 108.797C38.9429 108.603 38.578 108.505 38.1564 108.505C37.8483 108.505 37.5564 108.595 37.2807 108.773C37.005 108.935 36.7617 109.154 36.5509 109.43C36.3401 109.689 36.1779 109.989 36.0644 110.33C35.9509 110.67 35.8941 111.019 35.8941 111.376C35.8941 111.83 35.9752 112.243 36.1374 112.616C36.2996 112.973 36.5347 113.257 36.8428 113.468C37.1509 113.662 37.5077 113.76 37.9131 113.76ZM43.6053 117.457C43.1674 117.457 42.8025 117.392 42.5106 117.262C42.2349 117.116 42.0322 116.979 41.9025 116.849C41.7728 116.703 41.7079 116.63 41.7079 116.63C41.5944 115.446 41.489 114.295 41.3917 113.176C41.3106 112.057 41.27 110.905 41.27 109.722C41.2862 108.538 41.3511 107.297 41.4646 106C41.4646 106 41.5295 105.935 41.6592 105.805C41.789 105.675 41.9917 105.554 42.2674 105.44C42.5593 105.311 42.9404 105.262 43.4107 105.294C43.8972 105.343 44.2701 105.489 44.5296 105.732C44.8053 105.959 44.9918 106.219 45.0891 106.511C45.1864 106.786 45.2432 107.03 45.2594 107.24C45.2756 107.451 45.2837 107.557 45.2837 107.557C45.2188 108.384 45.1621 109.097 45.1134 109.697C45.081 110.297 45.0648 110.889 45.0648 111.473C45.081 112.041 45.1053 112.665 45.1377 113.346C45.1702 114.027 45.2107 114.87 45.2594 115.876C45.2594 115.876 45.2432 115.957 45.2107 116.119C45.1945 116.265 45.1377 116.443 45.0404 116.654C44.9431 116.865 44.781 117.052 44.5539 117.214C44.3269 117.376 44.0107 117.457 43.6053 117.457ZM54.3582 117.457C53.1743 117.457 52.1851 117.295 51.3905 116.971C50.6121 116.646 49.9958 116.2 49.5418 115.633C49.1039 115.065 48.7877 114.424 48.5931 113.711C48.3985 112.981 48.3012 112.211 48.3012 111.4C48.3012 110.395 48.4309 109.511 48.6904 108.749C48.9498 107.97 49.3309 107.33 49.8337 106.827C50.3526 106.308 50.9932 105.927 51.7554 105.684C52.5338 105.424 53.4257 105.303 54.4311 105.319C55.3069 105.335 56.1177 105.489 56.8637 105.781C57.6259 106.057 58.2908 106.462 58.8583 106.997C59.4421 107.532 59.8962 108.181 60.2206 108.943C60.5449 109.705 60.7071 110.573 60.7071 111.546C60.7233 112.357 60.5611 113.119 60.2206 113.833C59.8962 114.546 59.4421 115.179 58.8583 115.73C58.2745 116.265 57.5934 116.687 56.815 116.995C56.0528 117.303 55.2339 117.457 54.3582 117.457ZM49.2255 122.687C48.7552 122.687 48.366 122.59 48.0579 122.395C47.766 122.217 47.539 122.006 47.3768 121.763C47.2146 121.519 47.1011 121.309 47.0363 121.13C46.9714 120.952 46.939 120.863 46.939 120.863C46.8741 120.165 46.8092 119.346 46.7444 118.406C46.6957 117.481 46.6633 116.508 46.6471 115.487C46.6471 114.449 46.6471 113.411 46.6471 112.373C46.6633 111.319 46.6876 110.305 46.72 109.332C46.7687 108.359 46.8254 107.484 46.8903 106.705C46.8903 106.705 46.9065 106.632 46.939 106.486C46.9876 106.34 47.0768 106.17 47.2065 105.976C47.3525 105.781 47.5552 105.627 47.8147 105.513C48.0741 105.384 48.4228 105.335 48.8607 105.367C49.3309 105.416 49.7039 105.546 49.9796 105.757C50.2553 105.951 50.458 106.17 50.5878 106.413C50.7175 106.64 50.8067 106.843 50.8553 107.021C50.904 107.2 50.9283 107.289 50.9283 107.289C50.8959 107.905 50.8715 108.651 50.8553 109.527C50.8391 110.403 50.8229 111.351 50.8067 112.373C50.8067 113.378 50.8148 114.4 50.831 115.438C50.8472 116.476 50.8634 117.481 50.8797 118.454C50.9121 119.444 50.9526 120.336 51.0013 121.13C51.0013 121.13 50.9851 121.203 50.9526 121.349C50.9202 121.511 50.8472 121.69 50.7337 121.884C50.6364 122.095 50.4661 122.282 50.2229 122.444C49.9796 122.606 49.6472 122.687 49.2255 122.687ZM53.8473 113.735C54.2041 113.735 54.5366 113.646 54.8447 113.468C55.1528 113.289 55.4204 113.062 55.6474 112.787C55.8744 112.495 56.0528 112.17 56.1826 111.814C56.3123 111.457 56.3772 111.108 56.3772 110.768C56.3772 110.184 56.2636 109.738 56.0366 109.43C55.8258 109.105 55.5663 108.878 55.2582 108.749C54.9501 108.603 54.6582 108.53 54.3825 108.53C54.0744 108.53 53.7663 108.611 53.4581 108.773C53.1662 108.935 52.8987 109.154 52.6554 109.43C52.4121 109.689 52.2094 109.997 52.0473 110.354C51.9013 110.695 51.8283 111.059 51.8283 111.449C51.8283 111.854 51.9094 112.235 52.0716 112.592C52.25 112.933 52.4851 113.208 52.777 113.419C53.0851 113.63 53.4419 113.735 53.8473 113.735ZM66.4904 117.481C66.0201 117.481 65.6309 117.392 65.3228 117.214C65.0309 117.019 64.8038 116.8 64.6417 116.557C64.4795 116.314 64.366 116.103 64.3011 115.925C64.2363 115.73 64.2038 115.633 64.2038 115.633C64.139 114.935 64.0822 114.173 64.0335 113.346C63.9849 112.519 63.9525 111.668 63.9362 110.792C63.9362 109.9 63.9444 109.008 63.9606 108.116C63.9768 107.224 64.0092 106.34 64.0579 105.465C64.1065 104.589 64.1633 103.754 64.2281 102.959C64.2281 102.959 64.2444 102.886 64.2768 102.74C64.3254 102.594 64.4146 102.432 64.5444 102.254C64.6903 102.059 64.893 101.897 65.1525 101.767C65.412 101.637 65.7606 101.597 66.1985 101.646C66.685 101.694 67.058 101.816 67.3175 102.01C67.5931 102.205 67.7959 102.424 67.9256 102.667C68.0553 102.894 68.1445 103.097 68.1932 103.275C68.2418 103.454 68.2661 103.543 68.2661 103.543C68.2337 104.175 68.2013 104.881 68.1688 105.659C68.1526 106.438 68.1364 107.257 68.1202 108.116C68.104 108.976 68.0959 109.859 68.0959 110.768C68.0959 111.66 68.104 112.543 68.1202 113.419C68.1526 114.295 68.1932 115.13 68.2418 115.925C68.2418 115.925 68.2256 116.006 68.1932 116.168C68.1607 116.314 68.0878 116.492 67.9742 116.703C67.8769 116.914 67.7067 117.1 67.4634 117.262C67.2364 117.408 66.912 117.481 66.4904 117.481ZM69.9446 109.04C68.6635 109.024 67.4472 109 66.2958 108.968C65.1606 108.919 64.1471 108.886 63.2551 108.87C63.2551 108.87 63.1578 108.862 62.9632 108.846C62.7686 108.813 62.5254 108.749 62.2335 108.651C61.9578 108.538 61.7064 108.376 61.4794 108.165C61.2686 107.938 61.1388 107.63 61.0902 107.24C61.0578 106.9 61.1064 106.632 61.2361 106.438C61.3659 106.227 61.528 106.073 61.7226 105.976C61.9172 105.862 62.0875 105.781 62.2335 105.732C62.3956 105.684 62.4767 105.659 62.4767 105.659C62.6065 105.643 62.8497 105.627 63.2065 105.611C63.5633 105.594 63.993 105.586 64.4957 105.586C64.9984 105.57 65.5417 105.562 66.1255 105.562C66.7093 105.546 67.2931 105.538 67.8769 105.538C68.4607 105.521 69.0121 105.513 69.5311 105.513C69.5311 105.513 69.604 105.521 69.75 105.538C69.9122 105.554 70.1068 105.594 70.3338 105.659C70.577 105.708 70.8122 105.805 71.0392 105.951C71.2663 106.081 71.4528 106.267 71.5987 106.511C71.7609 106.738 71.8338 107.038 71.8176 107.411C71.8014 107.849 71.696 108.189 71.5014 108.432C71.3068 108.659 71.0879 108.813 70.8446 108.895C70.6014 108.976 70.3905 109.024 70.2122 109.04C70.0338 109.04 69.9446 109.04 69.9446 109.04ZM78.6289 117.457C77.7208 117.457 76.8694 117.303 76.0747 116.995C75.2963 116.687 74.6152 116.265 74.0314 115.73C73.4638 115.195 73.0179 114.57 72.6935 113.857C72.3854 113.143 72.2314 112.381 72.2314 111.57C72.2314 110.759 72.3854 109.981 72.6935 109.235C73.0017 108.473 73.4395 107.8 74.0071 107.216C74.5909 106.616 75.2639 106.146 76.0261 105.805C76.8045 105.465 77.6559 105.294 78.5802 105.294C79.5046 105.294 80.3641 105.416 81.1587 105.659C81.9696 105.903 82.6831 106.276 83.2994 106.778C83.9156 107.281 84.394 107.913 84.7345 108.676C85.0913 109.438 85.2697 110.338 85.2697 111.376C85.2697 112.187 85.0994 112.965 84.7589 113.711C84.4183 114.441 83.9399 115.089 83.3237 115.657C82.7237 116.208 82.0182 116.646 81.2074 116.971C80.4128 117.295 79.5533 117.457 78.6289 117.457ZM78.5559 113.808C78.8803 113.808 79.1884 113.743 79.4803 113.614C79.7722 113.468 80.0317 113.273 80.2587 113.03C80.4857 112.787 80.6641 112.519 80.7938 112.227C80.9398 111.919 81.0128 111.595 81.0128 111.254C81.0128 110.67 80.9155 110.192 80.7209 109.819C80.5263 109.446 80.2587 109.17 79.9181 108.992C79.5938 108.813 79.2208 108.724 78.7992 108.724C78.4748 108.724 78.1748 108.805 77.8991 108.968C77.6235 109.13 77.3802 109.34 77.1694 109.6C76.9586 109.859 76.7883 110.151 76.6586 110.476C76.545 110.8 76.4883 111.132 76.4883 111.473C76.4883 111.927 76.5694 112.333 76.7315 112.689C76.9099 113.03 77.1532 113.306 77.4613 113.516C77.7694 113.711 78.1343 113.808 78.5559 113.808ZM94.5519 117.457C93.368 117.457 92.3788 117.295 91.5842 116.971C90.8058 116.646 90.1895 116.2 89.7355 115.633C89.2976 115.065 88.9814 114.424 88.7868 113.711C88.5922 112.981 88.4949 112.211 88.4949 111.4C88.4949 110.395 88.6246 109.511 88.8841 108.749C89.1436 107.97 89.5247 107.33 90.0274 106.827C90.5463 106.308 91.1869 105.927 91.9491 105.684C92.7275 105.424 93.6194 105.303 94.6249 105.319C95.5006 105.335 96.3114 105.489 97.0574 105.781C97.8196 106.057 98.4845 106.462 99.0521 106.997C99.6359 107.532 100.09 108.181 100.414 108.943C100.739 109.705 100.901 110.573 100.901 111.546C100.917 112.357 100.755 113.119 100.414 113.833C100.09 114.546 99.6359 115.179 99.0521 115.73C98.4682 116.265 97.7871 116.687 97.0087 116.995C96.2465 117.303 95.4276 117.457 94.5519 117.457ZM89.4192 122.687C88.949 122.687 88.5598 122.59 88.2516 122.395C87.9597 122.217 87.7327 122.006 87.5705 121.763C87.4084 121.519 87.2948 121.309 87.23 121.13C87.1651 120.952 87.1327 120.863 87.1327 120.863C87.0678 120.165 87.0029 119.346 86.9381 118.406C86.8894 117.481 86.857 116.508 86.8408 115.487C86.8408 114.449 86.8408 113.411 86.8408 112.373C86.857 111.319 86.8813 110.305 86.9137 109.332C86.9624 108.359 87.0192 107.484 87.084 106.705C87.084 106.705 87.1002 106.632 87.1327 106.486C87.1813 106.34 87.2705 106.17 87.4002 105.976C87.5462 105.781 87.7489 105.627 88.0084 105.513C88.2678 105.384 88.6165 105.335 89.0544 105.367C89.5247 105.416 89.8976 105.546 90.1733 105.757C90.449 105.951 90.6517 106.17 90.7815 106.413C90.9112 106.64 91.0004 106.843 91.049 107.021C91.0977 107.2 91.122 107.289 91.122 107.289C91.0896 107.905 91.0653 108.651 91.049 109.527C91.0328 110.403 91.0166 111.351 91.0004 112.373C91.0004 113.378 91.0085 114.4 91.0247 115.438C91.0409 116.476 91.0571 117.481 91.0734 118.454C91.1058 119.444 91.1463 120.336 91.195 121.13C91.195 121.13 91.1788 121.203 91.1463 121.349C91.1139 121.511 91.0409 121.69 90.9274 121.884C90.8301 122.095 90.6598 122.282 90.4166 122.444C90.1733 122.606 89.8409 122.687 89.4192 122.687ZM94.041 113.735C94.3978 113.735 94.7303 113.646 95.0384 113.468C95.3465 113.289 95.6141 113.062 95.8411 112.787C96.0682 112.495 96.2465 112.17 96.3763 111.814C96.506 111.457 96.5709 111.108 96.5709 110.768C96.5709 110.184 96.4574 109.738 96.2303 109.43C96.0195 109.105 95.76 108.878 95.4519 108.749C95.1438 108.603 94.8519 108.53 94.5762 108.53C94.2681 108.53 93.96 108.611 93.6518 108.773C93.3599 108.935 93.0924 109.154 92.8491 109.43C92.6059 109.689 92.4031 109.997 92.241 110.354C92.095 110.695 92.022 111.059 92.022 111.449C92.022 111.854 92.1031 112.235 92.2653 112.592C92.4437 112.933 92.6788 113.208 92.9707 113.419C93.2789 113.63 93.6356 113.735 94.041 113.735Z" fill="#FFB100"/>
<path d="M92.8462 68.6692C92.8462 70.3261 94.1893 71.6692 95.8462 71.6692C97.503 71.6692 98.8462 70.3261 98.8462 68.6692H95.8462H92.8462ZM21.1231 68.6692C21.1231 70.3261 22.4662 71.6692 24.1231 71.6692C25.7799 71.6692 27.1231 70.3261 27.1231 68.6692H24.1231H21.1231ZM33.0885 20V23H86.8808V20V17H33.0885V20ZM95.8462 28.6698H92.8462V68.6692H95.8462H98.8462V28.6698H95.8462ZM24.1231 68.6692H27.1231V28.6698H24.1231H21.1231V68.6692H24.1231ZM86.8808 20V23C90.271 23 92.8462 25.6325 92.8462 28.6698H95.8462H98.8462C98.8462 22.1308 93.3935 17 86.8808 17V20ZM33.0885 20V17C26.5758 17 21.1231 22.1308 21.1231 28.6698H24.1231H27.1231C27.1231 25.6325 29.6983 23 33.0885 23V20ZM24.1231 71.2308V74.2308H95.8462V71.2308V68.2308H24.1231V71.2308ZM100.969 76.3538H97.9692V81.4769H100.969H103.969V76.3538H100.969ZM95.8462 86.6V83.6H24.1231V86.6V89.6H95.8462V86.6ZM19 81.4769H22V76.3538H19H16V81.4769H19ZM24.1231 86.6V83.6C22.9505 83.6 22 82.6495 22 81.4769H19H16C16 85.9632 19.6368 89.6 24.1231 89.6V86.6ZM100.969 81.4769H97.9692C97.9692 82.6495 97.0187 83.6 95.8462 83.6V86.6V89.6C100.332 89.6 103.969 85.9632 103.969 81.4769H100.969ZM95.8462 71.2308V74.2308C97.0187 74.2308 97.9692 75.1813 97.9692 76.3538H100.969H103.969C103.969 71.8676 100.332 68.2308 95.8462 68.2308V71.2308ZM24.1231 71.2308V68.2308C19.6368 68.2308 16 71.8676 16 76.3538H19H22C22 75.1813 22.9505 74.2308 24.1231 74.2308V71.2308Z" fill="#FFB100"/>
</svg>
